<svg id="Слой_1" data-name="Слой 1" xmlns="http://www.w3.org/2000/svg" viewBox="0 0 173.2 96.95"><defs><style>.cls-1,.cls-2{fill:#e30613;}.cls-1{fill-rule:evenodd;}</style></defs><path class="cls-1" d="M245,372.89H220.34v10.25h14.38l.1,66.86H245V372.89Zm100.9,9.69v.33l0,.34,0,.33.05.33.08.32.09.32.1.31.12.3.14.3.14.29.17.28.17.27.2.26.19.25.21.25.22.23.23.22.25.21.25.19.26.2.27.17.28.17.29.14.3.14.3.12.31.1.32.09.32.08.33.05.33,0,.34,0h.69l.33,0,.35,0,.34-.05.32-.08.32-.09.31-.1.3-.12.31-.14.28-.14.28-.17.27-.17.26-.2.25-.19.25-.21.22-.22.22-.23.21-.25.19-.25.19-.26.17-.27.16-.28.14-.29.14-.3.11-.3.11-.31.09-.32.07-.32.06-.33,0-.33,0-.34v-.68l0-.33,0-.34-.06-.32-.07-.32-.09-.31-.11-.32-.11-.29-.14-.29-.14-.28-.16-.28-.17-.27-.19-.25-.19-.25-.21-.24-.22-.23-.22-.21-.25-.21-.25-.19-.26-.19-.27-.17-.28-.16-.28-.15-.31-.12-.3-.12-.31-.1-.32-.09-.32-.07-.34-.06-.35,0-.33,0h-.69l-.34,0-.33,0-.33.06-.32.07-.32.09-.31.1-.3.12-.3.12-.29.15-.28.16-.27.17-.26.19-.25.19-.25.21-.23.21-.22.23-.21.24-.19.25-.2.25-.17.27-.17.28-.14.28-.14.29-.12.29-.1.32-.09.31-.08.32-.05.32,0,.34,0,.33v.35Zm1.31,0v-.3l0-.28,0-.28,0-.28.06-.27.07-.26.09-.26.09-.25.1-.25.12-.23.13-.24.14-.22.14-.22.17-.21.16-.2.18-.19.19-.19.18-.17.21-.16.2-.15.23-.14.22-.14.23-.12.24-.11.24-.1.25-.09.26-.07.26-.07.27,0,.27,0,.27,0,.28,0,.28,0,.29,0,.27,0,.27,0,.26.07.26.07.25.09.24.1.25.11.23.12.23.14.22.14.22.15.21.16.19.17.19.19.18.19.17.2.17.21.15.22.14.22.13.24.12.23.11.25.09.25.09.26.07.26.07.27,0,.28,0,.28,0,.28v.59l0,.29,0,.29,0,.29-.07.28-.07.27-.09.27-.09.26-.11.26-.12.25-.13.24-.14.22-.15.23-.17.22-.17.2-.18.2-.19.19L356,387l-.21.17-.22.16-.22.15-.23.13-.23.13-.25.11-.24.11-.25.09-.26.07-.26.07-.27.05-.27,0-.29,0h-.56l-.27,0-.27,0-.27-.05-.26-.07-.26-.07-.25-.09-.24-.11-.24-.11-.23-.13-.22-.13-.23-.15-.2-.16-.21-.17-.18-.18-.19-.19-.18-.2-.16-.2-.17-.22-.14-.23-.14-.22-.13-.24-.12-.25-.1-.26-.09-.26-.09-.27-.07-.27-.06-.28,0-.29,0-.29,0-.29v-.29Zm3,3.29h1.23v-2.73h1.19l.21,0,.2,0,.17,0,.14.06.12.07.11.07.08.09.06.09.05.1.05.09,0,.11v1.35l0,.19,0,.07v.07l0,.05,0,0,0,0,0,0,0,0,.05,0h1.23l-.06-.06,0-.05,0-.05,0-.06-.05-.11,0-.15,0-.4,0-.63v-.28l0-.26,0-.13,0-.12,0-.12-.05-.11-.05-.11-.06-.1-.08-.1-.09-.08-.11-.08-.11-.08-.13-.06-.16-.07.19-.06.16-.09.14-.08.13-.09.1-.09.1-.09.07-.11.07-.1,0-.1,0-.11,0-.09,0-.1,0-.21v-.47l0-.14,0-.13,0-.12,0-.12-.05-.1-.05-.11-.06-.08-.07-.09-.06-.08-.08-.07-.07-.07-.08-.06-.09-.06-.08-.05-.18-.09-.18-.07-.17-.05-.19,0-.17,0h-3.36v6.58Zm1.23-5.74h1.52l.14,0,.13,0,.13,0,.12,0,.1,0,.1.07.09.06.08.08.07.08.05.09,0,.11,0,.11,0,.13v.4l0,.1,0,.08,0,.09-.06.08-.05.07-.08.08-.08.06-.1.07-.12,0-.13,0-.14,0h-1.76v-2.07ZM383.2,432.7H292.84l-1.12,0-1.11-.08-1.09-.13-1.07-.2L287.4,432l-1-.29-1-.34-1-.38-1-.45-.94-.47-.91-.52-.87-.57-.86-.6-.81-.64-.79-.68-.76-.73-.71-.74-.69-.79-.63-.83-.61-.84-.56-.89-.53-.91-.48-.93-.43-1-.39-1-.34-1-.29-1-.24-1.05-.19-1.08-.14-1.09-.08-1.1,0-1.13,0-1.11.07-1.11.12-1.08.19-1.07.23-1.05.28-1,.33-1,.38-1,.42-1,.47-.94.51-.92.56-.9.6-.86.62-.84.69-.8.7-.77.75-.73.79-.7.81-.66.84-.61.88-.59.91-.53.94-.5,1-.44,1-.4,1-.36,1-.29,1.06-.25,1.08-.21,1.1-.14,1.13-.08,1.14,0,1.1,0,1.09.08,1.09.16,1.06.19,1.05.26,1,.31,1,.36,1,.41,1,.47.94.51.92.55.9.6.87.64.83.7.8.72.78.77.74.8.69.85.66.87.63.91.58.95.53,1,.5,1,.46,1,.4,1.07.35,1.09.31,1.1.25,1.14.19,1.17.15,1.18.09,1.19,0,1.22H304.59v-.68l0-.66-.06-.66-.1-.64-.11-.64-.14-.62-.16-.6-.18-.6-.21-.58-.24-.56-.25-.55-.28-.53-.3-.52-.33-.48-.34-.48-.36-.45-.39-.44-.41-.41-.43-.38-.45-.36-.46-.34-.5-.31-.51-.3-.52-.26-.55-.23-.56-.21-.59-.17-.59-.14-.63-.12-.63-.09-.66,0-.67,0-.67,0-.65,0-.64.09-.62.12-.6.14-.59.17-.56.21-.54.23-.53.26-.51.3-.49.31-.47.34-.45.36-.43.38-.4.41-.39.44-.37.45-.35.48-.32.48-.29.52-.28.53-.26.55-.23.56-.22.58-.18.6-.16.6-.14.62-.11.64-.09.64-.06.66-.05.66v.68l0,.54,0,.53.08.53.11.51.15.51.16.49.21.49.23.46.25.46.27.44.3.43.32.41.35.41.36.37.39.38.4.35.41.33.43.32.46.3.46.28.48.26.49.24.5.23.5.19.51.19.53.15.53.14.53.11.54.08.55.07.55,0,.54,0H383.2V432.7Zm0,16.07H292.93l-1.92,0-1.89-.14-1.88-.22-1.84-.31-1.82-.39-1.78-.48-1.75-.56-1.71-.64-1.67-.7L275,444.5l-1.58-.86-1.54-.93-1.48-1L269,440.64l-1.38-1.12-1.32-1.19-1.25-1.26-1.21-1.31-1.12-1.37L261.67,433l-1-1.49-.92-1.52-.84-1.58-.77-1.63-.68-1.66-.6-1.71-.52-1.77-.43-1.78-.34-1.84-.24-1.87-.15-1.9-.05-1.93.05-2,.13-1.91.24-1.91.32-1.88.4-1.86.48-1.83.58-1.8.65-1.77.72-1.73.8-1.68.89-1.65.95-1.6,1-1.55,1.09-1.49,1.16-1.45,1.24-1.39,1.29-1.32,1.35-1.27,1.42-1.19,1.47-1.12,1.52-1.05,1.58-1,1.65-.9,1.68-.81,1.74-.72,1.79-.65,1.83-.55,1.87-.46,1.9-.36,2-.27,2-.15,2-.05,2,0,2,.15,2,.25,1.91.35,1.87.43,1.84.53,1.79.62,1.73.7,1.7.78,1.64.87,1.59.94,1.52,1,1.49,1.09,1.41,1.17,1.36,1.22,1.3,1.3,1.23,1.36,1.17,1.43,1.09,1.49,1,1.53,1,1.6.88,1.65.81,1.69.73,1.74.66,1.79.56,1.83.5,1.87.4,1.91.32,1.93.23,2,.13,2,.06,2H320.67l-.05-1.41-.1-1.38-.16-1.39-.23-1.37-.27-1.35-.33-1.35-.38-1.32-.45-1.3-.49-1.26-.56-1.26-.59-1.21-.66-1.19-.72-1.15-.75-1.11-.82-1.09-.85-1-.92-1-1-.94-1-.9-1.06-.84-1.12-.8-1.15-.73-1.21-.67-1.25-.62-1.3-.55-1.34-.48-1.39-.42-1.44-.34-1.48-.27-1.52-.19-1.57-.11-1.61,0-1.61,0-1.58.13-1.53.21-1.48.28-1.44.35-1.4.44-1.35.5-1.3.56-1.26.63-1.21.69-1.16.75-1.11.8-1.06.85-1,.91-1,1-.92,1-.86,1-.81,1.08-.76,1.13-.69,1.16-.66,1.18-.6,1.21-.54,1.24-.48,1.27-.44,1.29-.37,1.3-.32,1.32-.26,1.33-.21,1.34-.15,1.36-.08,1.35,0,1.36.05,1.22.09,1.23.18,1.22.22,1.2.3,1.22.35,1.19.43,1.18.47,1.16.53,1.13.6,1.13.65,1.09.69,1.07.76,1,.8,1,.85,1,.9.94.94.91,1,.87,1,.81,1.07.78,1.12.73,1.15.67,1.21.63,1.23.56,1.27.52,1.29.44,1.35.39,1.36.33,1.4.25,1.43.18,1.45.12,1.47,0H383.2v10.25Zm-152.89-60H210V399h10.25v51H230.4l-.09-61.22Z" transform="translate(-210 -372.89)"/><path class="cls-2" d="M222,469.5h3.8V458.31h-5.48v3.09H222v8.1Zm16.41-4.27a3.73,3.73,0,0,1-2.49,1A2.21,2.21,0,0,1,233.4,464a2.29,2.29,0,0,1,2.49-2.46,3.24,3.24,0,0,1,2.48,1.18v-3.92a5.7,5.7,0,0,0-3.07-.84c-2.84,0-6.17,1.87-6.17,5.93,0,3.58,2.59,5.93,6.24,5.93a6.26,6.26,0,0,0,3-.69v-3.92Zm1.57-2a2,2,0,0,0,4,0,2,2,0,0,0-4,0Zm0,4.81a2,2,0,0,0,4,0,2,2,0,0,0-4,0Zm10.91,1.46h4.48v-1.57c1.91,0,5.36-.52,5.36-4.58s-3.45-4.61-5.36-4.59v-1.23h-4.48v1.23c-1.92,0-5.37.53-5.37,4.59s3.45,4.6,5.37,4.58v1.57Zm4-7.61h.29a1.46,1.46,0,0,1,0,2.91h-.29v-2.91Zm-3.58,2.91H251a1.46,1.46,0,0,1,0-2.91h.29v2.91Zm10.91,4.7h4.48V466h1.36c3.54,0,4.45-2.25,4.45-3.87s-.89-3.85-4.45-3.85h-5.84V469.5Zm4.48-8.28h.49c.37,0,1.07,0,1.07.94,0,.45-.17,1-1.07,1h-.49v-1.9Zm6.15,8.28h4.59l.44-1.63h2.82l.44,1.63h4.59l-4-11.19h-4.92l-4,11.19Zm6.44-7.27.78,2.84H278.5l.78-2.84Zm7.34,7.27h4.47v-4.09h2.24v4.09h4.47V458.31h-4.47v3.85h-2.24v-3.85h-4.47V469.5Zm19.12,0h4.48V458.31h-4.48v4.14a9.08,9.08,0,0,1-.95.1c-.88,0-.84-1.17-.84-1.7v-2.54h-4.47V462c0,1.91.14,3.78,4.17,3.78a9.13,9.13,0,0,0,2.09-.2v3.92Zm5.37,0h4.59l.45-1.63H319l.45,1.63H324l-4-11.19h-4.92l-4,11.19Zm6.44-7.27.79,2.84h-1.57l.78-2.84Zm7.34-3.92V469.5h4l3.13-5.37v5.37h4.25V458.31h-4l-3.13,5.58v-5.58Zm5.85-.56a3.06,3.06,0,0,0,3.35-2.46h-2.35c-.08,1.09-.83,1.12-1,1.12s-.93,0-1-1.12h-2.35a3.08,3.08,0,0,0,3.36,2.46Zm8.18,3.85a5.47,5.47,0,0,1,2.51-.71c1.07,0,1.29.4,1.29.79,0,.68-.57.77-1.36.77h-1.64v2.8h1.76c1,0,1.31.27,1.31.77,0,.68-.64.91-1.28.91a4.25,4.25,0,0,1-2.46-1.08l-1.63,2.53a8.38,8.38,0,0,0,5,1.46c2.84,0,4.82-1.41,4.82-3.44a2.76,2.76,0,0,0-2.16-2.67v-.05a2.68,2.68,0,0,0,1.95-2.52c0-1.79-1.79-3.18-4.82-3.18a10.28,10.28,0,0,0-4.59,1l1.28,2.57Zm9.8-3.29V469.5h4l3.13-5.37v5.37h4.26V458.31h-4L353,463.89v-5.58Zm13.42,11.19h4.47v-4.09h2.24v4.09h4.48V458.31h-4.48v3.85h-2.24v-3.85h-4.47V469.5Zm13.2,0h4.47v-7.94h3.36v-3.25h-7.83V469.5Z" transform="translate(-210 -372.89)"/></svg>