<svg id="Ñëîé_1" data-name="Ñëîé 1" xmlns="http://www.w3.org/2000/svg" viewBox="0 0 96 96"><defs><style>.cls-1,.cls-3{fill:#8a1002;}.cls-2{fill:#fff;}.cls-3{fill-rule:evenodd;}</style></defs><rect class="cls-1" width="96" height="96" rx="9.6"/><rect class="cls-2" x="4.27" y="4.27" width="87.47" height="87.47" rx="7"/><path class="cls-3" d="M9.6,13.87H26.67V87.25H9.6V13.87ZM18.13,70.4a5.34,5.34,0,1,0,5.34,5.33,5.33,5.33,0,0,0-5.34-5.33ZM12.84,20.74V57.25H23.43V20.74Z" transform="translate(0 0)"/><path class="cls-3" d="M60.41,20.68l5,7.65-2,6.13L70.45,28l7,3,5.44-1.42L86.75,37l-4.41,0L76.09,41.9,65.17,40.52l-2.82,2.55-.55-.2-.9,4a5,5,0,0,1,.3,1.83c-.1,2.92-1.49,4-1.65,4.14L57.71,61H56.47l1.91-8.54a3.32,3.32,0,0,1-1.88-3.26,28,28,0,0,1,1.35-6.81A14.26,14.26,0,0,1,60,45.06l.59-2.63-.55-.21.53-5.2-4.41-7.76V19l7.4-5.14-3.17,6.87Zm-.19,32.85a4.07,4.07,0,0,0,0,4.84C62,61,66.47,61,66.47,61a13.39,13.39,0,0,0-2.07-5.43,4.32,4.32,0,0,0-4.18-2.08Zm19.93-2.85s-7.79-6.22-12.92-4.8-4.41,6.88-4.41,6.88,3.17,2.12,8.2.72,9.13-2.8,9.13-2.8ZM69.48,23.42l-1.36-7.76-4,0L62,20.4l4.91,7.42-1,2.75,4.16-4.36,7.12,3.09L84,27.54l-4.33-4-8.14-2.22,8,.59-10.1-7.45Z" transform="translate(0 0)"/><path class="cls-3" d="M60.86,63.73h2.4l-3,6.07,9.1,17.39H65.84L58.37,69.8l2.49-6.07ZM61,87.19,55.79,69.8l1.73-6.07H52.27V87.19Z" transform="translate(0 0)"/><path class="cls-3" d="M30.93,13.81H48V87.19H30.93V13.81Zm8.54,56.53a5.34,5.34,0,1,0,5.33,5.33,5.34,5.34,0,0,0-5.33-5.33Zm-5.3-49.67V57.19H44.76V20.67Z" transform="translate(0 0)"/></svg>