<svg id="Layer_1" data-name="Layer 1" xmlns="http://www.w3.org/2000/svg" viewBox="0 0 96 96"><defs><style>.cls-1,.cls-3{fill:#8a1002;}.cls-1,.cls-2{fill-rule:evenodd;}.cls-2{fill:#fff;}</style></defs><path class="cls-1" d="M9.6,0H86.4A9.63,9.63,0,0,1,96,9.6V86.4A9.63,9.63,0,0,1,86.4,96H9.6A9.63,9.63,0,0,1,0,86.4V9.6A9.63,9.63,0,0,1,9.6,0Z" transform="translate(0 0)"/><path class="cls-2" d="M11.26,4.27H84.74a7,7,0,0,1,7,7V84.74a7,7,0,0,1-7,7H11.26a7,7,0,0,1-7-7V11.26a7,7,0,0,1,7-7Z" transform="translate(0 0)"/><path class="cls-3" d="M21.12,40.43v-16H22.4v35.2h4.69V40.43h1.28v19.2h4.7V24.43h1.28v16h4V22.93a3.83,3.83,0,0,0-3.79-3.84H20.86a3.82,3.82,0,0,0-3.79,3.84v17.5h4.05Z" transform="translate(0 0)"/><path class="cls-3" d="M27.73,18.88a5.12,5.12,0,1,0-5.12-5.12A5.12,5.12,0,0,0,27.73,18.88Z" transform="translate(0 0)"/><path class="cls-3" d="M84.27,9.6H73.6V22.4H60.8V35.2H48V48H35.2V60.8H22.4V73.6H9.6V86.4H86.4V9.6ZM82.13,82.13H39.47V52.27H82.13Z" transform="translate(0 0)"/><rect class="cls-3" x="41.6" y="54.4" width="38.4" height="10.67"/><rect class="cls-3" x="68.27" y="76.27" width="3.2" height="3.2"/><rect class="cls-3" x="64" y="66.67" width="3.2" height="3.2"/><rect class="cls-3" x="68.27" y="71.47" width="3.2" height="3.2"/><rect class="cls-3" x="64" y="76.27" width="3.2" height="3.2"/><rect class="cls-3" x="43.73" y="76.27" width="17.07" height="3.2"/><rect class="cls-3" x="68.27" y="66.67" width="3.2" height="3.2"/><rect class="cls-3" x="64" y="71.47" width="3.2" height="3.2"/><rect class="cls-3" x="72.53" y="76.27" width="3.2" height="3.2"/><rect class="cls-3" x="76.8" y="76.27" width="3.2" height="3.2"/><path class="cls-3" d="M76.8,74.67H80v-8H76.8Z" transform="translate(0 0)"/><rect class="cls-3" x="72.53" y="71.47" width="3.2" height="3.2"/><rect class="cls-3" x="72.53" y="66.67" width="3.2" height="3.2"/></svg>